<?xml version="1.0" encoding="UTF-8" standalone="no"?>
<!-- Created with Inkscape (http://www.inkscape.org/) -->

<svg
   xmlns:dc="http://purl.org/dc/elements/1.1/"
   xmlns:cc="http://creativecommons.org/ns#"
   xmlns:rdf="http://www.w3.org/1999/02/22-rdf-syntax-ns#"
   xmlns:svg="http://www.w3.org/2000/svg"
   xmlns="http://www.w3.org/2000/svg"
   xmlns:sodipodi="http://sodipodi.sourceforge.net/DTD/sodipodi-0.dtd"
   xmlns:inkscape="http://www.inkscape.org/namespaces/inkscape"
   id="svg7384"
   height="16"
   width="16"
   version="1.1"
   inkscape:version="0.91 r13725"
   sodipodi:docname="application-certificate-symbolic.svg">
  <defs
     id="defs11" />
  <sodipodi:namedview
     pagecolor="#ffffff"
     bordercolor="#666666"
     borderopacity="1"
     objecttolerance="10"
     gridtolerance="10"
     guidetolerance="10"
     inkscape:pageopacity="0"
     inkscape:pageshadow="2"
     inkscape:window-width="1360"
     inkscape:window-height="714"
     id="namedview9"
     showgrid="false"
     inkscape:zoom="31.34375"
     inkscape:cx="3.0867398"
     inkscape:cy="8"
     inkscape:window-x="0"
     inkscape:window-y="27"
     inkscape:window-maximized="1"
     inkscape:current-layer="svg7384" />
  <metadata
     id="metadata90">
    <rdf:RDF>
      <cc:Work
         rdf:about="">
        <dc:format>image/svg+xml</dc:format>
        <dc:type
           rdf:resource="http://purl.org/dc/dcmitype/StillImage" />
        <dc:title>Gnome Symbolic Icon Theme</dc:title>
      </cc:Work>
    </rdf:RDF>
  </metadata>
  <title
     id="title9167">Gnome Symbolic Icon Theme</title>
  <g
     id="layer14"
     transform="translate(-502 -300)"
     style="fill:#4c9906;fill-opacity:1">
    <path
       id="path1234-2"
       style="block-progression:tb;text-indent:0;color:#000000;text-transform:none;fill:#4c9906;fill-opacity:1"
       d="m504 302c-0.52358 0.00005-0.99995 0.47642-1 1v10c0.00005 0.52358 0.47642 0.99995 1 1h3.0001v-2s-1.9929-0.0211-2.0001 0.0001v-8h11l0.00066 7.9999h-1.0006v2h2.0006c0.5193 0 0.9993-0.43501 0.9993-0.99988v-10c0.00075-0.46663-0.43709-1.0001-1-0.9999z" />
    <path
       id="path4136-5"
       style="fill:#4c9906;fill-opacity:1"
       d="m514 308.06a3 3 0 0 1 -5.9987 0 3 3 0 1 1 5.9987 0z" />
    <path
       id="path3655-4-1"
       style="fill:#4c9906;fill-rule:evenodd;fill-opacity:1"
       d="m510 309-2.0002 7h1l2.0002-2 1.9998 2h1l-1.9999-7" />
  </g>
</svg>
