<?xml version="1.0" encoding="UTF-8" standalone="no"?>
<!-- Created with Inkscape (http://www.inkscape.org/) -->

<svg
   xmlns:dc="http://purl.org/dc/elements/1.1/"
   xmlns:cc="http://creativecommons.org/ns#"
   xmlns:rdf="http://www.w3.org/1999/02/22-rdf-syntax-ns#"
   xmlns:svg="http://www.w3.org/2000/svg"
   xmlns="http://www.w3.org/2000/svg"
   xmlns:sodipodi="http://sodipodi.sourceforge.net/DTD/sodipodi-0.dtd"
   xmlns:inkscape="http://www.inkscape.org/namespaces/inkscape"
   id="svg7384"
   height="16"
   width="16"
   version="1.1"
   inkscape:version="0.91 r13725"
   sodipodi:docname="package-x-generic-symbolic.svg">
  <defs
     id="defs11" />
  <sodipodi:namedview
     pagecolor="#ffffff"
     bordercolor="#666666"
     borderopacity="1"
     objecttolerance="10"
     gridtolerance="10"
     guidetolerance="10"
     inkscape:pageopacity="0"
     inkscape:pageshadow="2"
     inkscape:window-width="1360"
     inkscape:window-height="714"
     id="namedview9"
     showgrid="false"
     inkscape:zoom="31.34375"
     inkscape:cx="3.0867398"
     inkscape:cy="8"
     inkscape:window-x="0"
     inkscape:window-y="27"
     inkscape:window-maximized="1"
     inkscape:current-layer="svg7384" />
  <metadata
     id="metadata90">
    <rdf:RDF>
      <cc:Work
         rdf:about="">
        <dc:format>image/svg+xml</dc:format>
        <dc:type
           rdf:resource="http://purl.org/dc/dcmitype/StillImage" />
        <dc:title>Gnome Symbolic Icon Theme</dc:title>
      </cc:Work>
    </rdf:RDF>
  </metadata>
  <title
     id="title9167">Gnome Symbolic Icon Theme</title>
  <g
     id="layer14"
     transform="translate(-482,-300)"
     style="fill:#4c9906;fill-opacity:1">
    <path
       id="rect7268"
       style="color:#bebebe;fill:#4c9906;fill-opacity:1"
       d="m485 308h10v7.059c0 0.4922-0.47266 0.9375-0.99609 0.9375h-8.0039c-0.53906 0-1-0.42964-1-1z" />
    <path
       id="path7270"
       style="block-progression:tb;text-indent:0;color:#000000;text-transform:none;fill:#4c9906;fill-opacity:1"
       d="m488.69 302.97a1.0001 1.0001 0 0 0 -0.65625 0.375l-2.8125 3.4688a1.0001 1.0001 0 0 0 -0.22 0.63v1a1.0001 1.0001 0 1 0 2 0v-0.65625l2.5938-3.1562a1.0001 1.0001 0 0 0 -0.90625 -1.6562z" />
    <path
       id="path7272"
       style="block-progression:tb;text-indent:0;color:#000000;text-transform:none;fill:#4c9906;fill-opacity:1"
       d="m490.91 305.97a1.0001 1.0001 0 1 0 -0.0312 2l2.1562 0.375v0.15625a1.0001 1.0001 0 1 0 2 0v-1a1.0001 1.0001 0 0 0 -0.8125 -1l-3-0.5a1.0001 1.0001 0 0 0 -0.3125 -0.0312z" />
  </g>
</svg>
