<?xml version="1.0" encoding="UTF-8" standalone="no"?>
<!-- Created with Inkscape (http://www.inkscape.org/) -->

<svg
   xmlns:dc="http://purl.org/dc/elements/1.1/"
   xmlns:cc="http://creativecommons.org/ns#"
   xmlns:rdf="http://www.w3.org/1999/02/22-rdf-syntax-ns#"
   xmlns:svg="http://www.w3.org/2000/svg"
   xmlns="http://www.w3.org/2000/svg"
   xmlns:sodipodi="http://sodipodi.sourceforge.net/DTD/sodipodi-0.dtd"
   xmlns:inkscape="http://www.inkscape.org/namespaces/inkscape"
   id="svg7384"
   height="16"
   width="16"
   version="1.1"
   inkscape:version="0.91 r13725"
   sodipodi:docname="x-office-calendar-symbolic.svg">
  <defs
     id="defs10" />
  <sodipodi:namedview
     pagecolor="#ffffff"
     bordercolor="#666666"
     borderopacity="1"
     objecttolerance="10"
     gridtolerance="10"
     guidetolerance="10"
     inkscape:pageopacity="0"
     inkscape:pageshadow="2"
     inkscape:window-width="1360"
     inkscape:window-height="714"
     id="namedview8"
     showgrid="false"
     inkscape:zoom="31.34375"
     inkscape:cx="3.0867398"
     inkscape:cy="8"
     inkscape:window-x="0"
     inkscape:window-y="27"
     inkscape:window-maximized="1"
     inkscape:current-layer="svg7384" />
  <metadata
     id="metadata90">
    <rdf:RDF>
      <cc:Work
         rdf:about="">
        <dc:format>image/svg+xml</dc:format>
        <dc:type
           rdf:resource="http://purl.org/dc/dcmitype/StillImage" />
        <dc:title>Gnome Symbolic Icon Theme</dc:title>
      </cc:Work>
    </rdf:RDF>
  </metadata>
  <title
     id="title9167">Gnome Symbolic Icon Theme</title>
  <g
     id="layer14"
     transform="translate(-541 -301)"
     style="fill:#4c9906;fill-opacity:1">
    <path
       id="rect27790"
       style="block-progression:tb;text-indent:0;color:#000000;enable-background:new;text-transform:none;fill:#4c9906;fill-opacity:1"
       d="m543 301c-1.0524 0-2 0.84508-2 1.9375v11.125c0 1.0924 0.94763 1.9375 2 1.9375h11c1.0524 0 2-0.84508 2-1.9375v-11.125c0-1.0924-0.94763-1.9375-2-1.9375h-11zm0 5h3.0312v2h-3.0312v-2zm4.0312 0h2.9688v2h-2.9688v-2zm3.9688 0h3v2h-3v-2zm-8 3h3.0312v2h-3.0312v-2zm4.0312 0h2.9688v2h-2.9688v-2zm3.9688 0h3v2h-3v-2zm-8 3h3.0312v2h-3.0312v-2zm4.0312 0h2.9688v2h-2.9688v-2zm3.9688 0h3v2h-3v-2z" />
    <rect
       id="rect27810"
       style="opacity:0.35;color:#000000;fill:#4c9906;fill-opacity:1"
       height="2"
       width="3"
       y="309"
       x="551" />
  </g>
</svg>
