<?xml version="1.0" encoding="UTF-8" standalone="no"?>
<!-- Created with Inkscape (http://www.inkscape.org/) -->

<svg
   xmlns:dc="http://purl.org/dc/elements/1.1/"
   xmlns:cc="http://creativecommons.org/ns#"
   xmlns:rdf="http://www.w3.org/1999/02/22-rdf-syntax-ns#"
   xmlns:svg="http://www.w3.org/2000/svg"
   xmlns="http://www.w3.org/2000/svg"
   xmlns:sodipodi="http://sodipodi.sourceforge.net/DTD/sodipodi-0.dtd"
   xmlns:inkscape="http://www.inkscape.org/namespaces/inkscape"
   id="svg7384"
   height="16"
   width="16"
   version="1.1"
   inkscape:version="0.91 r13725"
   sodipodi:docname="emblem-synchronizing-symbolic.svg">
  <defs
     id="defs11" />
  <sodipodi:namedview
     pagecolor="#ffffff"
     bordercolor="#666666"
     borderopacity="1"
     objecttolerance="10"
     gridtolerance="10"
     guidetolerance="10"
     inkscape:pageopacity="0"
     inkscape:pageshadow="2"
     inkscape:window-width="1360"
     inkscape:window-height="714"
     id="namedview9"
     showgrid="false"
     inkscape:zoom="31.34375"
     inkscape:cx="3.0867398"
     inkscape:cy="8"
     inkscape:window-x="0"
     inkscape:window-y="27"
     inkscape:window-maximized="1"
     inkscape:current-layer="svg7384" />
  <metadata
     id="metadata90">
    <rdf:RDF>
      <cc:Work
         rdf:about="">
        <dc:format>image/svg+xml</dc:format>
        <dc:type
           rdf:resource="http://purl.org/dc/dcmitype/StillImage" />
        <dc:title>Gnome Symbolic Icon Theme</dc:title>
      </cc:Work>
    </rdf:RDF>
  </metadata>
  <title
     id="title9167">Gnome Symbolic Icon Theme</title>
  <g
     id="layer15"
     transform="translate(-501 -381)"
     style="fill:#4c9906;fill-opacity:1">
    <path
       id="path4597-1"
       style="block-progression:tb;text-indent:0;color:#bebebe;text-transform:none;fill:#4c9906;fill-opacity:1"
       d="m515.9 383c-0.0423 0.008-0.0841 0.0181-0.125 0.0312-0.44715 0.10014-0.79228 0.5419-0.78125 1v1.6875c0.004 1.3126 0.004 1.3126-1.5625 1.3125h-1.4375c-0.52358 0.00005-0.99995 0.47642-1 1-0.008 0.0726-0.008 0.14613 0 0.21875v0.78125h6v-1-4c0.006-0.0623 0.006-0.12518 0-0.1875v-0.8125h-0.8125c-0.0916-0.0236-0.18665-0.0342-0.28125-0.0312z" />
    <path
       id="path10913"
       style="block-progression:tb;text-indent:0;color:#bebebe;text-transform:none;fill:#4c9906;fill-opacity:1"
       d="m501 389v1 4c-0.006 0.0623-0.006 0.12518 0 0.1875v0.8125h0.8125c0.0916 0.0236 0.18665 0.0342 0.28125 0.0312 0.0423-0.008 0.0841-0.0181 0.125-0.0312 0.44715-0.10014 0.79228-0.5419 0.78125-1v-1.6875c0-1.31 0-1.31 1.57-1.31h1.4375c0.52358-0.00005 0.99995-0.47642 1-1 0.008-0.0726 0.008-0.14613 0-0.21875v-0.78125z" />
    <path
       id="path1483"
       style="block-progression:tb;text-indent:0;color:#000000;text-transform:none;fill:#4c9906;fill-opacity:1"
       d="m509 382c-3.1532 0-5.8195 2.1257-6.6875 5h2.0938c0.7734-1.765 2.5382-3 4.5938-3s3.8204 1.235 4.5938 3h2.0938c-0.86802-2.8743-3.5343-5-6.6875-5zm-6.6875 9c0.86802 2.8743 3.5343 5 6.6875 5s5.8195-2.1257 6.6875-5h-2.0938c-0.7734 1.765-2.5382 3-4.5938 3s-3.8204-1.235-4.5938-3h-2.0938z" />
  </g>
</svg>
