<?xml version="1.0" encoding="UTF-8" standalone="no"?>
<!-- Created with Inkscape (http://www.inkscape.org/) -->

<svg
   xmlns:dc="http://purl.org/dc/elements/1.1/"
   xmlns:cc="http://creativecommons.org/ns#"
   xmlns:rdf="http://www.w3.org/1999/02/22-rdf-syntax-ns#"
   xmlns:svg="http://www.w3.org/2000/svg"
   xmlns="http://www.w3.org/2000/svg"
   xmlns:sodipodi="http://sodipodi.sourceforge.net/DTD/sodipodi-0.dtd"
   xmlns:inkscape="http://www.inkscape.org/namespaces/inkscape"
   id="svg7384"
   height="16"
   width="16"
   version="1.1"
   inkscape:version="0.91 r13725"
   sodipodi:docname="emblem-music-symbolic.svg">
  <defs
     id="defs13" />
  <sodipodi:namedview
     pagecolor="#ffffff"
     bordercolor="#666666"
     borderopacity="1"
     objecttolerance="10"
     gridtolerance="10"
     guidetolerance="10"
     inkscape:pageopacity="0"
     inkscape:pageshadow="2"
     inkscape:window-width="1360"
     inkscape:window-height="714"
     id="namedview11"
     showgrid="false"
     inkscape:zoom="31.34375"
     inkscape:cx="8"
     inkscape:cy="8"
     inkscape:window-x="0"
     inkscape:window-y="27"
     inkscape:window-maximized="1"
     inkscape:current-layer="svg7384" />
  <metadata
     id="metadata90">
    <rdf:RDF>
      <cc:Work
         rdf:about="">
        <dc:format>image/svg+xml</dc:format>
        <dc:type
           rdf:resource="http://purl.org/dc/dcmitype/StillImage" />
        <dc:title>Gnome Symbolic Icon Theme</dc:title>
      </cc:Work>
    </rdf:RDF>
  </metadata>
  <title
     id="title9167">Gnome Symbolic Icon Theme</title>
  <g
     id="layer15"
     transform="translate(-582 -382)"
     style="fill:#4c9906;fill-opacity:1">
    <path
       id="path6170"
       style="block-progression:tb;text-indent:0;color:#000000;enable-background:new;text-transform:none;fill:#4c9906;fill-opacity:1"
       d="m585.5 390.01c-1.9212 0-3.5034 1.5501-3.5034 3.4712 0 1.9212 1.5822 3.5034 3.5034 3.5034s3.5034-1.5822 3.5034-3.5034-1.5822-3.4712-3.5034-3.4712zm0 1.9928c0.84027 0 1.5106 0.63823 1.5106 1.4785s-0.67037 1.5106-1.5106 1.5106c-0.84027 0-1.5106-0.67036-1.5106-1.5106 0-0.84027 0.67037-1.4785 1.5106-1.4785z" />
    <path
       id="path6170-5"
       style="block-progression:tb;text-indent:0;color:#000000;enable-background:new;text-transform:none;fill:#4c9906;fill-opacity:1"
       d="m593.5 390.01c-1.9212 0-3.5034 1.5501-3.5034 3.4712 0 1.9212 1.5822 3.5034 3.5034 3.5034s3.5034-1.5822 3.5034-3.5034-1.5822-3.4712-3.5034-3.4712zm0 1.9928c0.84027 0 1.5106 0.63823 1.5106 1.4785s-0.67037 1.5106-1.5106 1.5106c-0.84027 0-1.5106-0.67036-1.5106-1.5106 0-0.84027 0.67037-1.4785 1.5106-1.4785z" />
    <rect
       id="rect6190"
       style="color:#000000;enable-background:new;fill:#4c9906;fill-opacity:1"
       height="9.5157"
       width="2"
       y="384"
       x="587" />
    <rect
       id="rect6190-8"
       style="color:#000000;enable-background:new;fill:#4c9906;fill-opacity:1"
       height="9.5627"
       width="2"
       y="384"
       x="595" />
    <rect
       id="rect6190-8-8"
       style="color:#000000;enable-background:new;fill:#4c9906;fill-opacity:1"
       height="2"
       width="10"
       y="384"
       x="587" />
  </g>
</svg>
