<?xml version="1.0" encoding="UTF-8" standalone="no"?>
<!-- Created with Inkscape (http://www.inkscape.org/) -->

<svg
   xmlns:dc="http://purl.org/dc/elements/1.1/"
   xmlns:cc="http://creativecommons.org/ns#"
   xmlns:rdf="http://www.w3.org/1999/02/22-rdf-syntax-ns#"
   xmlns:svg="http://www.w3.org/2000/svg"
   xmlns="http://www.w3.org/2000/svg"
   xmlns:sodipodi="http://sodipodi.sourceforge.net/DTD/sodipodi-0.dtd"
   xmlns:inkscape="http://www.inkscape.org/namespaces/inkscape"
   id="svg7384"
   height="16"
   width="16"
   version="1.1"
   inkscape:version="0.91 r13725"
   sodipodi:docname="applications-multimedia-symbolic.svg">
  <defs
     id="defs10" />
  <sodipodi:namedview
     pagecolor="#ffffff"
     bordercolor="#666666"
     borderopacity="1"
     objecttolerance="10"
     gridtolerance="10"
     guidetolerance="10"
     inkscape:pageopacity="0"
     inkscape:pageshadow="2"
     inkscape:window-width="1360"
     inkscape:window-height="714"
     id="namedview8"
     showgrid="false"
     inkscape:zoom="31.34375"
     inkscape:cx="3.0867398"
     inkscape:cy="8"
     inkscape:window-x="0"
     inkscape:window-y="27"
     inkscape:window-maximized="1"
     inkscape:current-layer="svg7384" />
  <metadata
     id="metadata90">
    <rdf:RDF>
      <cc:Work
         rdf:about="">
        <dc:format>image/svg+xml</dc:format>
        <dc:type
           rdf:resource="http://purl.org/dc/dcmitype/StillImage" />
        <dc:title>Gnome Symbolic Icon Theme</dc:title>
      </cc:Work>
    </rdf:RDF>
  </metadata>
  <title
     id="title9167">Gnome Symbolic Icon Theme</title>
  <g
     id="g4953"
     transform="translate(-601 -461)"
     style="fill:#4c9906;fill-opacity:1">
    <path
       id="rect6190-8-8-4"
       style="color:#000000;enable-background:new;fill:#4c9906;fill-opacity:1"
       d="m610 469v1 3.2812c-0.29454-0.17076-0.63503-0.28125-1-0.28125-1.1046 0-2 0.89543-2 2s0.89543 2 2 2 2-0.89543 2-2v-5h4v3.2812c-0.29454-0.17076-0.63503-0.28125-1-0.28125-1.1046 0-2 0.89543-2 2s0.89543 2 2 2 2-0.89543 2-2v-5-1h-1-4-1z" />
    <path
       id="rect5523-5"
       style="color:#000000;enable-background:new;fill:#4c9906;fill-opacity:1"
       d="m602.97 461s-0.96875 1-0.96875 2v12c0 1.0096-1 2-1 2h1s0.42287-0.42699 0.71875-1h1c-0.29588 0.57301-0.71875 1-0.71875 1h1s1-1.0214 1-2v-2h1v-1h-1v-5h8v1h1 1 1v-5c0-1 0.96875-2 0.96875-2h-3s-0.96875 1-0.96875 2v3h-8v-3c0-1 0.96875-2 0.96875-2zm0.3125 1h1c-0.15291 0.30578-0.28125 0.65211-0.28125 1h-1c0-0.34789 0.12834-0.69422 0.28125-1zm11 0h1c-0.15291 0.30578-0.28125 0.65211-0.28125 1h-1c0-0.34789 0.12834-0.69422 0.28125-1zm-11.281 2h1v1h-1zm11 0h1v1h-1zm-11 2h1v1h-1zm11 0h1v1h-1zm-11 2h1v1h-1zm0 2h1v1h-1zm0 2h1v1h-1zm0 2h1v1h-1z" />
  </g>
</svg>
