<?xml version="1.0" encoding="UTF-8" standalone="no"?>
<!-- Created with Inkscape (http://www.inkscape.org/) -->

<svg
   xmlns:dc="http://purl.org/dc/elements/1.1/"
   xmlns:cc="http://creativecommons.org/ns#"
   xmlns:rdf="http://www.w3.org/1999/02/22-rdf-syntax-ns#"
   xmlns:svg="http://www.w3.org/2000/svg"
   xmlns="http://www.w3.org/2000/svg"
   xmlns:sodipodi="http://sodipodi.sourceforge.net/DTD/sodipodi-0.dtd"
   xmlns:inkscape="http://www.inkscape.org/namespaces/inkscape"
   id="svg7384"
   height="16"
   width="16"
   version="1.1"
   inkscape:version="0.91 r13725"
   sodipodi:docname="folder-remote-symbolic.svg">
  <defs
     id="defs10" />
  <sodipodi:namedview
     pagecolor="#ffffff"
     bordercolor="#666666"
     borderopacity="1"
     objecttolerance="10"
     gridtolerance="10"
     guidetolerance="10"
     inkscape:pageopacity="0"
     inkscape:pageshadow="2"
     inkscape:window-width="1360"
     inkscape:window-height="714"
     id="namedview8"
     showgrid="false"
     inkscape:zoom="31.34375"
     inkscape:cx="3.0867398"
     inkscape:cy="8"
     inkscape:window-x="0"
     inkscape:window-y="27"
     inkscape:window-maximized="1"
     inkscape:current-layer="svg7384" />
  <metadata
     id="metadata90">
    <rdf:RDF>
      <cc:Work
         rdf:about="">
        <dc:format>image/svg+xml</dc:format>
        <dc:type
           rdf:resource="http://purl.org/dc/dcmitype/StillImage" />
        <dc:title>Gnome Symbolic Icon Theme</dc:title>
      </cc:Work>
    </rdf:RDF>
  </metadata>
  <title
     id="title9167">Gnome Symbolic Icon Theme</title>
  <g
     id="layer13"
     transform="translate(-462,-176)"
     style="fill:#4c9906;fill-opacity:1">
    <g
       id="g14176"
       transform="translate(234 -820)"
       style="fill:#4c9906;fill-opacity:1">
      <path
         id="rect3861"
         style="fill:#4c9906;fill-opacity:1"
         d="m228.53 996c-0.28913 0-0.53125 0.24212-0.53125 0.53125v10.938c0 0.2985 0.23264 0.5312 0.53125 0.5312h5.4688v2h-5.5312c-0.26299 0-0.46875 0.2057-0.46875 0.4688v1.0624c0 0.263 0.20576 0.4688 0.46875 0.4688h13.062c0.26299 0 0.46875-0.2058 0.46875-0.4688v-1.0624c0-0.263-0.20575-0.4688-0.46875-0.4688h-5.5312v-2h5.4688c0.2986 0 0.53125-0.2326 0.53125-0.5312v-5.9376c0-0.2891-0.24212-0.5312-0.53125-0.5312h-10.469v4.5c0 0.277-0.223 0.5-0.5 0.5s-0.5-0.223-0.5-0.5v-5c0-0.277 0.223-0.5 0.5-0.5h2.9688 6.5312v-1.4062c0-0.32713-0.26666-0.59375-0.59375-0.59375h-6.375v-1.4688c-0.01-0.39-0.25-0.63-0.54-0.63z" />
    </g>
  </g>
</svg>
