<?xml version="1.0" encoding="UTF-8" standalone="no"?>
<!-- Created with Inkscape (http://www.inkscape.org/) -->

<svg
   xmlns:dc="http://purl.org/dc/elements/1.1/"
   xmlns:cc="http://creativecommons.org/ns#"
   xmlns:rdf="http://www.w3.org/1999/02/22-rdf-syntax-ns#"
   xmlns:svg="http://www.w3.org/2000/svg"
   xmlns="http://www.w3.org/2000/svg"
   xmlns:sodipodi="http://sodipodi.sourceforge.net/DTD/sodipodi-0.dtd"
   xmlns:inkscape="http://www.inkscape.org/namespaces/inkscape"
   id="svg7384"
   height="16"
   width="16"
   version="1.1"
   inkscape:version="0.91 r13725"
   sodipodi:docname="accessories-calculator-symbolic.svg">
  <defs
     id="defs10" />
  <sodipodi:namedview
     pagecolor="#ffffff"
     bordercolor="#666666"
     borderopacity="1"
     objecttolerance="10"
     gridtolerance="10"
     guidetolerance="10"
     inkscape:pageopacity="0"
     inkscape:pageshadow="2"
     inkscape:window-width="1360"
     inkscape:window-height="714"
     id="namedview8"
     showgrid="false"
     inkscape:zoom="31.34375"
     inkscape:cx="3.0867398"
     inkscape:cy="8"
     inkscape:window-x="0"
     inkscape:window-y="27"
     inkscape:window-maximized="1"
     inkscape:current-layer="svg7384" />
  <metadata
     id="metadata90">
    <rdf:RDF>
      <cc:Work
         rdf:about="">
        <dc:format>image/svg+xml</dc:format>
        <dc:type
           rdf:resource="http://purl.org/dc/dcmitype/StillImage" />
        <dc:title>Gnome Symbolic Icon Theme</dc:title>
      </cc:Work>
    </rdf:RDF>
  </metadata>
  <title
     id="title9167">Gnome Symbolic Icon Theme</title>
  <g
     id="layer11"
     transform="translate(-62,-381)"
     style="fill:#4c9906;fill-opacity:1">
    <g
       id="g11525"
       transform="translate(14,-17)"
       style="fill:#4c9906;fill-opacity:1">
      <path
         id="rect5122-3-5"
         style="fill:#4c9906;fill-opacity:1"
         d="m50.031 398c-0.54216 0-1 0.32904-1 0.9375v14.125c0 0.58636 0.37667 0.9375 1 0.9375h13.031c0.521 0 0.938-0.35 0.938-0.94v-14.125c0-0.54-0.395-0.94-0.938-0.94h-13.031zm0.969 2.03h11.031v2.9688h-11.031v-2.97zm0.188 3.97h1.625c0.11 0 0.187 0.08 0.187 0.19v1.625c0 0.1-0.077 0.18-0.188 0.18h-1.625c-0.11 0-0.187-0.08-0.187-0.19v-1.625c0-0.1 0.077-0.18 0.188-0.18zm3 0h1.625c0.11 0 0.187 0.08 0.187 0.19v1.625c0 0.1-0.077 0.18-0.188 0.18h-1.625c-0.11 0-0.187-0.08-0.187-0.19v-1.625c0-0.1 0.077-0.18 0.188-0.18zm3 0h1.625c0.11 0 0.187 0.08 0.187 0.19v1.625c0 0.1-0.077 0.18-0.188 0.18h-1.625c-0.11 0-0.187-0.08-0.187-0.19v-1.625c0-0.1 0.077-0.18 0.188-0.18zm3 0h1.625c0.11 0 0.187 0.08 0.187 0.19v1.625c0 0.1-0.077 0.18-0.188 0.18h-1.625c-0.11 0-0.187-0.08-0.187-0.19v-1.625c0-0.1 0.077-0.18 0.188-0.18zm-9 3h1.625c0.11 0 0.187 0.08 0.187 0.19v1.625c0 0.1-0.077 0.18-0.188 0.18h-1.625c-0.11 0-0.187-0.08-0.187-0.19v-1.625c0-0.1 0.077-0.18 0.188-0.18zm3 0h1.625c0.11 0 0.187 0.08 0.187 0.19v1.625c0 0.1-0.077 0.18-0.188 0.18h-1.625c-0.11 0-0.187-0.08-0.187-0.19v-1.625c0-0.1 0.077-0.18 0.188-0.18zm3 0h1.625c0.11 0 0.187 0.08 0.187 0.19v1.625c0 0.1-0.077 0.18-0.188 0.18h-1.625c-0.11 0-0.187-0.08-0.187-0.19v-1.625c0-0.1 0.077-0.18 0.188-0.18zm3 0h1.625c0.11 0 0.187 0.08 0.187 0.19v1.625c0 0.1-0.077 0.18-0.188 0.18h-1.625c-0.11 0-0.187-0.08-0.187-0.19v-1.625c0-0.1 0.077-0.18 0.188-0.18zm-9 3h1.625c0.11 0 0.187 0.08 0.187 0.19v1.625c0 0.1-0.077 0.18-0.188 0.18h-1.625c-0.11 0-0.187-0.08-0.187-0.19v-1.625c0-0.1 0.077-0.18 0.188-0.18zm3 0h1.625c0.11 0 0.187 0.08 0.187 0.19v1.625c0 0.1-0.077 0.18-0.188 0.18h-1.625c-0.11 0-0.187-0.08-0.187-0.19v-1.625c0-0.1 0.077-0.18 0.188-0.18zm3 0h1.625c0.11 0 0.187 0.08 0.187 0.19v1.625c0 0.1-0.077 0.18-0.188 0.18h-1.625c-0.11 0-0.187-0.08-0.187-0.19v-1.625c0-0.1 0.077-0.18 0.188-0.18zm3 0h1.625c0.11 0 0.187 0.08 0.187 0.19v1.625c0 0.1-0.077 0.18-0.188 0.18h-1.625c-0.11 0-0.187-0.08-0.187-0.19v-1.625c0-0.1 0.077-0.18 0.188-0.18z" />
    </g>
  </g>
</svg>
