<?xml version="1.0" encoding="UTF-8" standalone="no"?>
<!-- Created with Inkscape (http://www.inkscape.org/) -->

<svg
   xmlns:dc="http://purl.org/dc/elements/1.1/"
   xmlns:cc="http://creativecommons.org/ns#"
   xmlns:rdf="http://www.w3.org/1999/02/22-rdf-syntax-ns#"
   xmlns:svg="http://www.w3.org/2000/svg"
   xmlns="http://www.w3.org/2000/svg"
   xmlns:sodipodi="http://sodipodi.sourceforge.net/DTD/sodipodi-0.dtd"
   xmlns:inkscape="http://www.inkscape.org/namespaces/inkscape"
   id="svg7384"
   height="16"
   width="16"
   version="1.1"
   inkscape:version="0.91 r13725"
   sodipodi:docname="accessories-dictionary-symbolic.svg">
  <defs
     id="defs12" />
  <sodipodi:namedview
     pagecolor="#ffffff"
     bordercolor="#666666"
     borderopacity="1"
     objecttolerance="10"
     gridtolerance="10"
     guidetolerance="10"
     inkscape:pageopacity="0"
     inkscape:pageshadow="2"
     inkscape:window-width="1360"
     inkscape:window-height="714"
     id="namedview10"
     showgrid="false"
     inkscape:zoom="31.34375"
     inkscape:cx="3.0867398"
     inkscape:cy="8"
     inkscape:window-x="0"
     inkscape:window-y="27"
     inkscape:window-maximized="1"
     inkscape:current-layer="svg7384" />
  <metadata
     id="metadata90">
    <rdf:RDF>
      <cc:Work
         rdf:about="">
        <dc:format>image/svg+xml</dc:format>
        <dc:type
           rdf:resource="http://purl.org/dc/dcmitype/StillImage" />
        <dc:title>Gnome Symbolic Icon Theme</dc:title>
      </cc:Work>
    </rdf:RDF>
  </metadata>
  <title
     id="title9167">Gnome Symbolic Icon Theme</title>
  <g
     id="layer11"
     transform="translate(-323.03 -629.03)"
     style="fill:#4c9906;fill-opacity:1">
    <path
       id="rect2996"
       style="block-progression:tb;text-indent:0;color:#000000;text-transform:none;fill:#4c9906;fill-opacity:1"
       d="m332.59 630.16c-0.56401 0.0886-1.2401 0.37856-2 0.78125-1.5434-0.84872-2.7454-0.88357-3.75-0.625-1.0645 0.27398-1.9279 0.69645-3.2812 0.65625h-0.5v0.5 9.8125 0.5h0.5c1.3218 0 2.4666-0.61013 3.5312-0.875s1.9826-0.28705 3.1562 0.75l0.3125 0.28125 0.34375-0.28125c1.1669-1.0634 2.048-1.0496 3.0938-0.78125 1.0458 0.26834 2.1709 0.89735 3.5 0.90625h0.53125v-0.5-9.8125-0.5h-0.5c-1.5074 0-2.296-0.4483-3.2812-0.71875-0.4926-0.13522-1.0221-0.19332-1.6562-0.0937zm0.125 0.96875c0.48192-0.0797 0.87152-0.0187 1.2812 0.0937 0.72174 0.19812 1.6688 0.58632 3.0312 0.6875v8.75c-0.86575-0.12953-1.7572-0.48724-2.7812-0.75-1.1072-0.2841-2.4107-0.16656-3.6875 0.8125-1.2871-0.95501-2.6-1.0596-3.7188-0.78125-1.0348 0.25745-1.9159 0.59593-2.7812 0.71875v-8.75c1.2639-0.0757 2.2319-0.41926 3.0312-0.625 0.91954-0.23667 1.7351-0.28477 3.25 0.625l0.25 0.125 0.25-0.125c0.81985-0.46732 1.3931-0.70154 1.875-0.78125z" />
    <rect
       id="rect3002"
       style="fill:#4c9906;fill-opacity:1"
       height="9.6033"
       width="1"
       y="631.38"
       x="330.06" />
    <path
       id="path12413"
       style="block-progression:tb;text-indent:0;color:#000000;text-transform:none;fill:#4c9906;fill-opacity:1"
       d="m336.03 631.5v11.406l-10.969 0.0625v-11.438h-2v12.438 1.0312l1-0.0312 12.969-0.0625h1v-1-12.406h-2z" />
    <path
       id="path13183"
       style="opacity:0.3;color:#000000;fill:#4c9906;fill-opacity:1"
       d="m323.94 643.75v-2.1875l4.2195-1.1306 2.2271 0.59675 2.5031-0.67071 3.7417 1.0026v2.452z" />
  </g>
</svg>
