<?xml version="1.0" encoding="UTF-8" standalone="no"?>
<!-- Created with Inkscape (http://www.inkscape.org/) -->

<svg
   xmlns:dc="http://purl.org/dc/elements/1.1/"
   xmlns:cc="http://creativecommons.org/ns#"
   xmlns:rdf="http://www.w3.org/1999/02/22-rdf-syntax-ns#"
   xmlns:svg="http://www.w3.org/2000/svg"
   xmlns="http://www.w3.org/2000/svg"
   xmlns:sodipodi="http://sodipodi.sourceforge.net/DTD/sodipodi-0.dtd"
   xmlns:inkscape="http://www.inkscape.org/namespaces/inkscape"
   id="svg7384"
   height="16"
   width="16"
   version="1.1"
   inkscape:version="0.91 r13725"
   sodipodi:docname="text-editor-symbolic.svg">
  <defs
     id="defs11" />
  <sodipodi:namedview
     pagecolor="#ffffff"
     bordercolor="#666666"
     borderopacity="1"
     objecttolerance="10"
     gridtolerance="10"
     guidetolerance="10"
     inkscape:pageopacity="0"
     inkscape:pageshadow="2"
     inkscape:window-width="1360"
     inkscape:window-height="714"
     id="namedview9"
     showgrid="false"
     inkscape:zoom="31.34375"
     inkscape:cx="3.0867398"
     inkscape:cy="8"
     inkscape:window-x="0"
     inkscape:window-y="27"
     inkscape:window-maximized="1"
     inkscape:current-layer="svg7384" />
  <metadata
     id="metadata90">
    <rdf:RDF>
      <cc:Work
         rdf:about="">
        <dc:format>image/svg+xml</dc:format>
        <dc:type
           rdf:resource="http://purl.org/dc/dcmitype/StillImage" />
        <dc:title>Gnome Symbolic Icon Theme</dc:title>
      </cc:Work>
    </rdf:RDF>
  </metadata>
  <title
     id="title9167">Gnome Symbolic Icon Theme</title>
  <g
     id="layer11"
     transform="translate(-283.03 -629.03)"
     style="fill:#4c9906;fill-opacity:1">
    <path
       id="path2273-6-2"
       style="fill:#4c9906;fill-rule:evenodd;fill-opacity:1"
       d="m288.03 639.03 6.9982-7c1 0 2 1 2 2l-7 7h-2z" />
    <path
       id="path4113-1-6-3"
       style="enable-background:new;fill:#4c9906;fill-opacity:1"
       d="m296.03 631.03c1 0 2 1 2 2l1-1c0-1-0.75185-2-2-2z" />
    <path
       id="path6682-6"
       style="block-progression:tb;text-indent:0;color:#000000;text-transform:none;fill:#4c9906;fill-opacity:1"
       d="m284.12 629.03c-0.56869 0.00005-1.0937 0.50285-1.0938 1.0625v12.844 0.25 0.78125c0.00005 0.55965 0.52506 1.0624 1.0938 1.0625h4.3438 1.125 5.3438c0.55754-0.00005 1.074-0.48468 1.0938-1.0312 0.00039-0.0109 0-0.0204 0-0.0312v-6.9376l-2 2v4h-9v-12h5l2 2 1.5312-1.5312-2.1875-2.125c-0.20046-0.20837-0.48969-0.3416-0.78125-0.34375z" />
  </g>
</svg>
