<?xml version="1.0" encoding="UTF-8" standalone="no"?>
<!-- Created with Inkscape (http://www.inkscape.org/) -->

<svg
   xmlns:dc="http://purl.org/dc/elements/1.1/"
   xmlns:cc="http://creativecommons.org/ns#"
   xmlns:rdf="http://www.w3.org/1999/02/22-rdf-syntax-ns#"
   xmlns:svg="http://www.w3.org/2000/svg"
   xmlns="http://www.w3.org/2000/svg"
   xmlns:sodipodi="http://sodipodi.sourceforge.net/DTD/sodipodi-0.dtd"
   xmlns:inkscape="http://www.inkscape.org/namespaces/inkscape"
   id="svg7384"
   height="16"
   width="16"
   version="1.1"
   inkscape:version="0.91 r13725"
   sodipodi:docname="user-info-symbolic.svg">
  <defs
     id="defs11" />
  <sodipodi:namedview
     pagecolor="#ffffff"
     bordercolor="#666666"
     borderopacity="1"
     objecttolerance="10"
     gridtolerance="10"
     guidetolerance="10"
     inkscape:pageopacity="0"
     inkscape:pageshadow="2"
     inkscape:window-width="1360"
     inkscape:window-height="714"
     id="namedview9"
     showgrid="false"
     inkscape:zoom="31.34375"
     inkscape:cx="3.0867398"
     inkscape:cy="8"
     inkscape:window-x="0"
     inkscape:window-y="27"
     inkscape:window-maximized="1"
     inkscape:current-layer="svg7384" />
  <metadata
     id="metadata90">
    <rdf:RDF>
      <cc:Work
         rdf:about="">
        <dc:format>image/svg+xml</dc:format>
        <dc:type
           rdf:resource="http://purl.org/dc/dcmitype/StillImage" />
        <dc:title>Gnome Symbolic Icon Theme</dc:title>
      </cc:Work>
    </rdf:RDF>
  </metadata>
  <title
     id="title9167">Gnome Symbolic Icon Theme</title>
  <g
     id="layer11"
     transform="translate(-102 -649)"
     style="fill:#4c9906;fill-opacity:1">
    <path
       id="path9219"
       style="fill:#4c9906;fill-opacity:1"
       d="m109.55 655.09c-0.70541 0.62353-1.5392 0.90625-2.5547 0.90625s-1.8532-0.29053-2.5586-0.91406c-1.1094 0.36328-2.436 1.2878-2.4375 2.9023l-0.004 3.0117c-0.00072 0.554 0.446 1 1 1h6v-5c-0.011-0.32734 0.3599-0.99776 1-1l1.1406-0.004c-0.71485-0.60547-1.157-0.79019-1.5859-0.90236z" />
    <path
       id="path9221"
       style="color:#bebebe;fill:#4c9906;fill-opacity:1"
       d="m52 342.5a2.5 2.5 0 1 1 -5 0 2.5 2.5 0 1 1 5 0z"
       transform="matrix(1.2 0 0 1.2 47.6 241)" />
    <path
       id="path9233"
       style="color:#bebebe;fill:#4c9906;fill-opacity:1"
       d="m110.88 657c-0.49245 0-0.875 0.38256-0.875 0.875v6.25c0 0.49244 0.38255 0.875 0.875 0.875h6.25c0.49245 0 0.875-0.38256 0.875-0.875v-6.25c0-0.49244-0.38255-0.875-0.875-0.875zm2.125 1h2v1h-2zm0 2h2v4h-2z" />
  </g>
</svg>
