<?xml version="1.0" encoding="UTF-8" standalone="no"?>
<!-- Created with Inkscape (http://www.inkscape.org/) -->

<svg
   xmlns:dc="http://purl.org/dc/elements/1.1/"
   xmlns:cc="http://creativecommons.org/ns#"
   xmlns:rdf="http://www.w3.org/1999/02/22-rdf-syntax-ns#"
   xmlns:svg="http://www.w3.org/2000/svg"
   xmlns="http://www.w3.org/2000/svg"
   xmlns:sodipodi="http://sodipodi.sourceforge.net/DTD/sodipodi-0.dtd"
   xmlns:inkscape="http://www.inkscape.org/namespaces/inkscape"
   id="svg7384"
   height="16"
   width="16"
   version="1.1"
   inkscape:version="0.91 r13725"
   sodipodi:docname="utilities-system-monitor-symbolic.svg">
  <defs
     id="defs10" />
  <sodipodi:namedview
     pagecolor="#ffffff"
     bordercolor="#666666"
     borderopacity="1"
     objecttolerance="10"
     gridtolerance="10"
     guidetolerance="10"
     inkscape:pageopacity="0"
     inkscape:pageshadow="2"
     inkscape:window-width="1360"
     inkscape:window-height="714"
     id="namedview8"
     showgrid="false"
     inkscape:zoom="31.34375"
     inkscape:cx="3.0867398"
     inkscape:cy="8"
     inkscape:window-x="0"
     inkscape:window-y="27"
     inkscape:window-maximized="1"
     inkscape:current-layer="svg7384" />
  <metadata
     id="metadata90">
    <rdf:RDF>
      <cc:Work
         rdf:about="">
        <dc:format>image/svg+xml</dc:format>
        <dc:type
           rdf:resource="http://purl.org/dc/dcmitype/StillImage" />
        <dc:title>Gnome Symbolic Icon Theme</dc:title>
      </cc:Work>
    </rdf:RDF>
  </metadata>
  <title
     id="title9167">Gnome Symbolic Icon Theme</title>
  <g
     id="layer11"
     transform="translate(-142,-490)"
     style="fill:#4c9906;fill-opacity:1">
    <path
       id="rect11749-5-0"
       style="block-progression:tb;text-indent:0;color:#bebebe;text-transform:none;fill:#4c9906;fill-opacity:1"
       d="m144.19 490c-1.21 0-2.19 1.02-2.19 2.22v10.562c0 1.2008 0.98238 2.2188 2.1875 2.2188h11.625c1.2051 0 2.1875-1.0179 2.1875-2.2188v-10.562c-0.01-1.2-0.99-2.22-2.2-2.22h-11.625zm0 2h11.625c0.12026 0 0.1875 0.08 0.1875 0.21875v10.562c-0.01 0.14-0.08 0.22-0.2 0.22h-11.625c-0.12026 0-0.1875-0.08-0.1875-0.21875v-10.562c0.01-0.14 0.08-0.22 0.2-0.22z" />
    <path
       id="path3643"
       style="block-progression:tb;text-indent:0;color:#000000;text-transform:none;fill:#4c9906;fill-opacity:1"
       d="m151.31 493.97a0.50005 0.50005 0 0 0 -0.34375 0.34375l-1.6875 6.0938-0.875-1.1875a0.50005 0.50005 0 0 0 -0.41 -0.22h-2.5-0.5v1h0.5 2.25l1.3125 1.7812a0.50005 0.50005 0 0 0 0.875 -0.15625l1.5312-5.4375 1.0625 3.4688a0.50005 0.50005 0 0 0 0.47 0.35h1.5 0.5v-1h-0.5-1.125l-1.4375-4.6875a0.50005 0.50005 0 0 0 -0.625 -0.34375z" />
  </g>
</svg>
