<?xml version="1.0" encoding="UTF-8" standalone="no"?>
<!-- Created with Inkscape (http://www.inkscape.org/) -->

<svg
   xmlns:dc="http://purl.org/dc/elements/1.1/"
   xmlns:cc="http://creativecommons.org/ns#"
   xmlns:rdf="http://www.w3.org/1999/02/22-rdf-syntax-ns#"
   xmlns:svg="http://www.w3.org/2000/svg"
   xmlns="http://www.w3.org/2000/svg"
   xmlns:sodipodi="http://sodipodi.sourceforge.net/DTD/sodipodi-0.dtd"
   xmlns:inkscape="http://www.inkscape.org/namespaces/inkscape"
   id="svg7384"
   height="16"
   width="16"
   version="1.1"
   inkscape:version="0.91 r13725"
   sodipodi:docname="action-unavailable-symbolic.svg">
  <defs
     id="defs9" />
  <sodipodi:namedview
     pagecolor="#ffffff"
     bordercolor="#666666"
     borderopacity="1"
     objecttolerance="10"
     gridtolerance="10"
     guidetolerance="10"
     inkscape:pageopacity="0"
     inkscape:pageshadow="2"
     inkscape:window-width="1360"
     inkscape:window-height="714"
     id="namedview7"
     showgrid="true"
     showguides="true"
     inkscape:zoom="14.75"
     inkscape:cx="-2.5762712"
     inkscape:cy="8"
     inkscape:window-x="0"
     inkscape:window-y="27"
     inkscape:window-maximized="1"
     inkscape:current-layer="svg7384">
    <inkscape:grid
       type="xygrid"
       id="grid3337" />
  </sodipodi:namedview>
  <metadata
     id="metadata90">
    <rdf:RDF>
      <cc:Work
         rdf:about="">
        <dc:format>image/svg+xml</dc:format>
        <dc:type
           rdf:resource="http://purl.org/dc/dcmitype/StillImage" />
        <dc:title>Gnome Symbolic Icon Theme</dc:title>
      </cc:Work>
    </rdf:RDF>
  </metadata>
  <title
     id="title9167">Gnome Symbolic Icon Theme</title>
  <g
     id="layer12"
     transform="translate(-220 -606)"
     style="fill:#4c9906;fill-opacity:1">
    <path
       id="path4222"
       style="block-progression:tb;text-indent:0;color:#000000;text-transform:none;fill:#4c9906;fill-opacity:1"
       d="m8 1.0312c-3.86 0-7 3.1558-7 7 0 3.8448 3.14 6.9688 7 6.9688s7-3.124 7-6.9688c0-3.8442-3.14-7-7-7zm0 2c1.0732 0 2.062 0.3704 2.875 0.9376l-6.9375 6.9372c-0.5842-0.81-0.9375-1.7909-0.9375-2.8748 0-2.7656 2.223-5 5-5zm4.25 2.375c0.478 0.7651 0.781 1.6532 0.781 2.625 0 2.7658-2.254 4.9688-5.031 4.9688-0.9571 0-1.8351-0.296-2.5938-0.75l6.8438-6.8438z"
       transform="translate(220 606)" />
  </g>
</svg>
