<?xml version="1.0" encoding="UTF-8" standalone="no"?>
<!-- Created with Inkscape (http://www.inkscape.org/) -->

<svg
   xmlns:dc="http://purl.org/dc/elements/1.1/"
   xmlns:cc="http://creativecommons.org/ns#"
   xmlns:rdf="http://www.w3.org/1999/02/22-rdf-syntax-ns#"
   xmlns:svg="http://www.w3.org/2000/svg"
   xmlns="http://www.w3.org/2000/svg"
   xmlns:sodipodi="http://sodipodi.sourceforge.net/DTD/sodipodi-0.dtd"
   xmlns:inkscape="http://www.inkscape.org/namespaces/inkscape"
   id="svg7384"
   height="16.018"
   width="16"
   version="1.1"
   inkscape:version="0.91 r13725"
   sodipodi:docname="document-properties-symbolic.svg">
  <defs
     id="defs10" />
  <sodipodi:namedview
     pagecolor="#ffffff"
     bordercolor="#666666"
     borderopacity="1"
     objecttolerance="10"
     gridtolerance="10"
     guidetolerance="10"
     inkscape:pageopacity="0"
     inkscape:pageshadow="2"
     inkscape:window-width="1360"
     inkscape:window-height="714"
     id="namedview8"
     showgrid="false"
     inkscape:zoom="31.308529"
     inkscape:cx="8"
     inkscape:cy="8.0089998"
     inkscape:window-x="0"
     inkscape:window-y="27"
     inkscape:window-maximized="1"
     inkscape:current-layer="svg7384" />
  <metadata
     id="metadata90">
    <rdf:RDF>
      <cc:Work
         rdf:about="">
        <dc:format>image/svg+xml</dc:format>
        <dc:type
           rdf:resource="http://purl.org/dc/dcmitype/StillImage" />
        <dc:title>Gnome Symbolic Icon Theme</dc:title>
      </cc:Work>
    </rdf:RDF>
  </metadata>
  <title
     id="title9167">Gnome Symbolic Icon Theme</title>
  <g
     id="layer12"
     transform="translate(-360,-766)"
     style="fill:#4c9906;fill-opacity:1">
    <path
       id="path6682"
       style="block-progression:tb;text-indent:0;color:#000000;text-transform:none;fill:#4c9906;fill-opacity:1"
       d="m367 780h-2.9688v-11h4.5625l3.4062 3.4062v5.5781l2 3.0156v-9.0313c-0.002-0.26843-0.11756-0.53419-0.3125-0.71875l-3.9688-3.9375c-0.18456-0.19494-0.45032-0.31049-0.71875-0.3125h-5.9688c-0.52358 0.00005-0.99995 0.47642-1 1v12 0.25 0.71875c0.00005 0.52358 0.47642 0.99995 1 1h5.0156z" />
    <path
       id="path3908-6-6"
       style="block-progression:tb;text-indent:0;color:#000000;text-transform:none;fill:#4c9906;fill-opacity:1"
       d="m369.02 773.86c-0.32486-0.059-0.6669-0.0455-0.99404-0.003l0.9759 1.7287c0.20088 0.35507-0.0237 0.76283-0.45022 1.0091l-0.76991 0.44451c-0.43052 0.23932-0.91014 0.20778-1.1107-0.14747l-0.97565-1.7288c-0.20685 0.25617-0.39602 0.54042-0.51415 0.84765-0.56538 1.4706 0.23676 2.8917 1.7916 3.1742 0.32485 0.0591 0.66688 0.0455 0.99402 0.003 0.0263-0.004 1.5184 2.765 1.5184 2.765l3.5048 0.062-2.6673-4.1297c0.20681-0.25617 0.37073-0.54378 0.48887-0.85103 0.56534-1.4706-0.23679-2.8917-1.7916-3.1741z" />
  </g>
</svg>
