<?xml version="1.0" encoding="UTF-8" standalone="no"?>
<!-- Created with Inkscape (http://www.inkscape.org/) -->

<svg
   xmlns:dc="http://purl.org/dc/elements/1.1/"
   xmlns:cc="http://creativecommons.org/ns#"
   xmlns:rdf="http://www.w3.org/1999/02/22-rdf-syntax-ns#"
   xmlns:svg="http://www.w3.org/2000/svg"
   xmlns="http://www.w3.org/2000/svg"
   xmlns:sodipodi="http://sodipodi.sourceforge.net/DTD/sodipodi-0.dtd"
   xmlns:inkscape="http://www.inkscape.org/namespaces/inkscape"
   id="svg7384"
   height="16"
   width="16"
   version="1.1"
   inkscape:version="0.91 r13725"
   sodipodi:docname="view-dual-symbolic.svg">
  <defs
     id="defs13" />
  <sodipodi:namedview
     pagecolor="#ffffff"
     bordercolor="#666666"
     borderopacity="1"
     objecttolerance="10"
     gridtolerance="10"
     guidetolerance="10"
     inkscape:pageopacity="0"
     inkscape:pageshadow="2"
     inkscape:window-width="1360"
     inkscape:window-height="714"
     id="namedview11"
     showgrid="false"
     inkscape:zoom="31.34375"
     inkscape:cx="3.0867398"
     inkscape:cy="8"
     inkscape:window-x="0"
     inkscape:window-y="27"
     inkscape:window-maximized="1"
     inkscape:current-layer="svg7384" />
  <metadata
     id="metadata90">
    <rdf:RDF>
      <cc:Work
         rdf:about="">
        <dc:format>image/svg+xml</dc:format>
        <dc:type
           rdf:resource="http://purl.org/dc/dcmitype/StillImage" />
        <dc:title>Gnome Symbolic Icon Theme</dc:title>
      </cc:Work>
    </rdf:RDF>
  </metadata>
  <title
     id="title9167">Gnome Symbolic Icon Theme</title>
  <g
     id="layer12"
     transform="translate(-181 -867)"
     style="fill:#4c9906;fill-opacity:1">
    <path
       id="rect7352-28-4-8"
       style="block-progression:tb;text-indent:0;color:#bebebe;text-transform:none;fill:#4c9906;fill-opacity:1"
       d="m181 868v1 11 1h1 5c0.1754 0 0.52538 0.15166 0.8125 0.34375s0.46875 0.375 0.46875 0.375l0.72 0.72 0.71875-0.75s0.8963-0.6875 1.2812-0.6875h5 1v-1-11-1h-1-5c-0.87652 0-1.5602 0.34756-2.0312 0.6875-0.0301-0.0207-0.031-0.0105-0.0625-0.0312-0.46-0.31-1.08-0.66-1.91-0.66h-5-1zm2 2h4c0.13821 0 0.51476 0.14746 0.8125 0.34375s0.5 0.375 0.5 0.375l0.71875 0.6875 0.6875-0.71875s0.89975-0.6875 1.2812-0.6875h4v9h-4c-0.87693 0-1.5601 0.34735-2.0312 0.6875-0.0196-0.0135-0.011-0.0177-0.0312-0.0312-0.46-0.31-1.1-0.66-1.94-0.66h-4v-9z" />
    <rect
       id="rect42942-5-3-1-4-4-5-9"
       style="opacity:0.35;color:#bebebe;fill:#4c9906;fill-opacity:1"
       transform="scale(-1,1)"
       rx=".375"
       ry=".375"
       height="2"
       width="3"
       y="872"
       x="-187" />
    <rect
       id="rect42944-7-5-3-5-1-5-0-2-62-5"
       style="opacity:0.35;color:#bebebe;fill:#4c9906;fill-opacity:1"
       transform="scale(-1,1)"
       rx=".375"
       ry=".375"
       height="2.0002"
       width="3"
       y="875"
       x="-187" />
    <rect
       id="rect42942-5-3-1-4-4-6-0-1"
       style="opacity:0.35;color:#bebebe;fill:#4c9906;fill-opacity:1"
       transform="scale(-1,1)"
       rx=".375"
       ry=".375"
       height="2.0002"
       width="3"
       y="872"
       x="-194" />
    <rect
       id="rect42944-7-5-3-5-1-5-0-2-6-4-6"
       style="opacity:0.35;color:#bebebe;fill:#4c9906;fill-opacity:1"
       transform="scale(-1,1)"
       rx=".375"
       ry=".375"
       height="2.0002"
       width="3"
       y="875"
       x="-194" />
  </g>
</svg>
