<?xml version="1.0" encoding="UTF-8" standalone="no"?>
<!-- Created with Inkscape (http://www.inkscape.org/) -->

<svg
   xmlns:dc="http://purl.org/dc/elements/1.1/"
   xmlns:cc="http://creativecommons.org/ns#"
   xmlns:rdf="http://www.w3.org/1999/02/22-rdf-syntax-ns#"
   xmlns:svg="http://www.w3.org/2000/svg"
   xmlns="http://www.w3.org/2000/svg"
   xmlns:sodipodi="http://sodipodi.sourceforge.net/DTD/sodipodi-0.dtd"
   xmlns:inkscape="http://www.inkscape.org/namespaces/inkscape"
   id="svg7384"
   height="16"
   width="16"
   version="1.1"
   inkscape:version="0.91 r13725"
   sodipodi:docname="view-fullscreen-symbolic.svg">
  <defs
     id="defs18" />
  <sodipodi:namedview
     pagecolor="#ffffff"
     bordercolor="#666666"
     borderopacity="1"
     objecttolerance="10"
     gridtolerance="10"
     guidetolerance="10"
     inkscape:pageopacity="0"
     inkscape:pageshadow="2"
     inkscape:window-width="1360"
     inkscape:window-height="714"
     id="namedview16"
     showgrid="false"
     inkscape:zoom="31.34375"
     inkscape:cx="8"
     inkscape:cy="8"
     inkscape:window-x="0"
     inkscape:window-y="27"
     inkscape:window-maximized="1"
     inkscape:current-layer="svg7384" />
  <metadata
     id="metadata90">
    <rdf:RDF>
      <cc:Work
         rdf:about="">
        <dc:format>image/svg+xml</dc:format>
        <dc:type
           rdf:resource="http://purl.org/dc/dcmitype/StillImage" />
        <dc:title>Gnome Symbolic Icon Theme</dc:title>
      </cc:Work>
    </rdf:RDF>
  </metadata>
  <title
     id="title9167">Gnome Symbolic Icon Theme</title>
  <g
     id="layer12"
     transform="translate(-41 -767)"
     style="fill:#4c9906;fill-opacity:1">
    <path
       id="path12113"
       style="block-progression:tb;text-indent:0;color:#000000;enable-background:new;text-transform:none;fill:#4c9906;fill-opacity:1"
       d="m42.781 776a1.0001 1.0001 0 0 0 -0.781 1v4a1.0001 1.0001 0 0 0 1 1h4a1.0001 1.0001 0 1 0 0 -2h-3v-3a1.0001 1.0001 0 0 0 -1.2188 -1z" />
    <path
       id="path12147"
       style="block-progression:tb;text-indent:0;color:#000000;enable-background:new;text-transform:none;fill:#4c9906;fill-opacity:1"
       d="m47.375 775.5a1.0001 1.0001 0 0 0 -0.59375 0.28125l-4.5 4.5a1.0165 1.0165 0 1 0 1.4375 1.4375l4.5-4.5a1.0001 1.0001 0 0 0 -0.843 -1.72z" />
    <rect
       id="rect12919"
       style="color:#000000;enable-background:new;fill:#4c9906;fill-opacity:1"
       height="1"
       width="1"
       y="781"
       x="42" />
    <path
       id="path12111"
       style="block-progression:tb;text-indent:0;color:#000000;enable-background:new;text-transform:none;fill:#4c9906;fill-opacity:1"
       d="m50.906 768a1.0011 1.0011 0 1 0 0.094 2h3v3a1.0001 1.0001 0 1 0 2 0v-4a1.0001 1.0001 0 0 0 -1 -1h-4a1.0001 1.0001 0 0 0 -0.09375 0z" />
    <rect
       id="rect12923"
       style="color:#000000;enable-background:new;fill:#4c9906;fill-opacity:1"
       height="1"
       width="1"
       y="768"
       x="55" />
    <path
       id="path12925"
       style="block-progression:tb;text-indent:0;color:#000000;enable-background:new;text-transform:none;fill:#4c9906;fill-opacity:1"
       d="m54.781 768a1.0001 1.0001 0 0 0 -0.5 0.28125l-4.5 4.4688a1.0165 1.0165 0 1 0 1.4375 1.4375l4.5-4.4688a1.0001 1.0001 0 0 0 -0.937 -1.72z" />
    <rect
       id="rect4479-2"
       style="color:#000000;fill:#4c9906;fill-opacity:1"
       height="1"
       width="1"
       y="776"
       x="42" />
    <rect
       id="rect4479-2-9"
       style="color:#000000;fill:#4c9906;fill-opacity:1"
       height="1"
       width="1"
       y="781"
       x="47" />
    <rect
       id="rect4479-2-9-9-0-8"
       style="color:#000000;fill:#4c9906;fill-opacity:1"
       height="1"
       width="1"
       y="773"
       x="55" />
    <rect
       id="rect4479-2-9-9-0-8-1"
       style="color:#000000;fill:#4c9906;fill-opacity:1"
       height="1"
       width="1"
       y="768"
       x="50" />
  </g>
</svg>
